<svg xmlns="http://www.w3.org/2000/svg" version="1.1" xmlns:xlink="http://www.w3.org/1999/xlink" xmlns:svgjs="http://svgjs.dev/svgjs" width="1000" height="1000" viewBox="0 0 1000 1000"><rect width="1000" height="1000" fill="#ffffff"></rect><g transform="matrix(0.7,0,0,0.7,149.57577483822604,282.1265587044535)"><svg viewBox="0 0 396 247" data-background-color="#ffffff" preserveAspectRatio="xMidYMid meet" height="623" width="1000" xmlns="http://www.w3.org/2000/svg" xmlns:xlink="http://www.w3.org/1999/xlink"><g id="tight-bounds" transform="matrix(1,0,0,1,0.239990234375,-0.09999999999999432)"><svg viewBox="0 0 395.52 247.2" height="247.2" width="395.52"><g><svg></svg></g><g><svg viewBox="0 0 395.52 247.2" height="247.2" width="395.52"><g transform="matrix(1,0,0,1,144.249792513369,47.215199999999996)"><svg viewBox="0 0 107.02041497326202 152.7696" height="152.7696" width="107.02041497326202"><g><svg viewBox="0 0 107.02041497326202 152.7696" height="152.7696" width="107.02041497326202"><g><svg viewBox="0 0 107.02041497326202 152.7696" height="152.7696" width="107.02041497326202"><g id="textblocktransform"><svg viewBox="0 0 107.02041497326202 152.7696" height="152.7696" width="107.02041497326202" id="textblock"><g><svg viewBox="0 0 107.02041497326202 152.7696" height="152.7696" width="107.02041497326202"><g transform="matrix(1,0,0,1,0,0)"><svg width="107.02041497326202" viewBox="0.6600000262260437 -36.18000030517578 25.59000015258789 36.52000045776367" height="152.7696" data-palette-color="url(#a525b12e-42b6-4946-9fa4-d8bbda76847b)"></svg></g></svg></g></svg></g></svg></g></svg></g></svg></g></svg></g><defs></defs><mask id="7ce044cd-017b-4d55-859f-278cafa68824"><g id="SvgjsG1471"><svg viewBox="0 0 395.52 247.2" height="247.2" width="395.52"><g><svg></svg></g><g><svg viewBox="0 0 395.52 247.2" height="247.2" width="395.52"><g transform="matrix(1,0,0,1,144.249792513369,47.215199999999996)"><svg viewBox="0 0 107.02041497326202 152.7696" height="152.7696" width="107.02041497326202"><g><svg viewBox="0 0 107.02041497326202 152.7696" height="152.7696" width="107.02041497326202"><g><svg viewBox="0 0 107.02041497326202 152.7696" height="152.7696" width="107.02041497326202"><g id="SvgjsG1470"><svg viewBox="0 0 107.02041497326202 152.7696" height="152.7696" width="107.02041497326202" id="SvgjsSvg1469"><g><svg viewBox="0 0 107.02041497326202 152.7696" height="152.7696" width="107.02041497326202"><g transform="matrix(1,0,0,1,0,0)"><svg width="107.02041497326202" viewBox="0.6600000262260437 -36.18000030517578 25.59000015258789 36.52000045776367" height="152.7696" data-palette-color="url(#a525b12e-42b6-4946-9fa4-d8bbda76847b)"><path d="M26.25-12.99L26.25-12.99Q26.25-9.64 25.09-7.14 23.93-4.64 21.91-2.98 19.9-1.32 17.2-0.49 14.5 0.34 11.4 0.34L11.4 0.34Q10.21 0.34 8.78 0.02 7.35-0.29 5.88-0.77 4.42-1.25 3.06-1.79 1.71-2.34 0.66-2.83L0.66-2.83 1.73-12.89Q3.81-11.65 6.34-11 8.86-10.35 11.3-10.35L11.3-10.35Q11.77-10.35 12.43-10.39 13.09-10.42 13.68-10.61 14.28-10.79 14.7-11.16 15.11-11.52 15.11-12.21L15.11-12.21Q15.11-12.67 14.82-13 14.53-13.33 14.06-13.54 13.6-13.75 13.01-13.85 12.43-13.96 11.87-14.01 11.3-14.06 10.82-14.06 10.33-14.06 10.03-14.06L10.03-14.06Q7.93-14.06 6.21-14.79 4.49-15.53 3.26-16.83 2.03-18.14 1.34-19.93 0.66-21.73 0.66-23.83L0.66-23.83Q0.66-26.71 1.82-28.99 2.98-31.27 4.92-32.87 6.86-34.47 9.38-35.33 11.89-36.18 14.58-36.18L14.58-36.18Q15.77-36.18 17.04-36.1 18.31-36.01 19.57-35.79 20.83-35.57 22.02-35.23 23.22-34.89 24.29-34.38L24.29-34.38 23.36-24.46Q21.7-25.02 19.89-25.4 18.07-25.78 16.33-25.78L16.33-25.78Q16.02-25.78 15.52-25.77 15.01-25.76 14.47-25.7 13.92-25.63 13.35-25.51 12.79-25.39 12.35-25.18 11.91-24.98 11.65-24.63 11.38-24.29 11.4-23.83L11.4-23.83Q11.43-23.29 11.8-22.96 12.18-22.63 12.78-22.45 13.38-22.27 14.1-22.19 14.82-22.12 15.53-22.11 16.24-22.09 16.85-22.11 17.46-22.12 17.85-22.07L17.85-22.07Q19.8-21.95 21.36-21.24 22.92-20.53 24.01-19.36 25.1-18.19 25.67-16.56 26.25-14.94 26.25-12.99Z" opacity="1" transform="matrix(1,0,0,1,0,0)" fill="white" class="wordmark-text-0" id="SvgjsPath1468"></path></svg></g></svg></g></svg></g></svg></g></svg></g></svg></g><path d="M326.551 41.215L326.551 0 79.351 0 79.351 247.2 326.551 247.2 326.551 205.985 312.774 205.985 312.774 233.423 93.128 233.423 93.128 13.777 312.774 13.777 312.774 41.215Z" fill="white" stroke="transparent"></path></svg></g><defs></defs></svg></g></mask><linearGradient x1="0" x2="1" y1="0.548" y2="0.55" id="a525b12e-42b6-4946-9fa4-d8bbda76847b"><stop stop-color="#ff6cab" offset="0"></stop><stop stop-color="#7366ff" offset="1"></stop></linearGradient><rect width="395.52001953125" height="247.1999969482422" fill="url(#a525b12e-42b6-4946-9fa4-d8bbda76847b)" mask="url(#7ce044cd-017b-4d55-859f-278cafa68824)" data-fill-palette-color="primary"></rect></svg><rect width="395.52" height="247.2" fill="none" stroke="none" visibility="hidden"></rect></g></svg></g></svg>